<?xml version="1.0" encoding="utf-8"?>
<!-- Generator: Adobe Illustrator 21.1.0, SVG Export Plug-In . SVG Version: 6.00 Build 0)  -->
<svg version="1.1" id="Capa_1" xmlns="http://www.w3.org/2000/svg" xmlns:xlink="http://www.w3.org/1999/xlink" x="0px" y="0px"
	 viewBox="0 0 512 512" style="enable-background:new 0 0 512 512;" xml:space="preserve">
<style type="text/css">
	.st0{fill:#FFFFFF;}
</style>
<g>
	<g>
		<path class="st0" d="M361.2,275.4c-8.1-8.2-18.9-13.2-30.3-14.3c9.9-8.9,16.1-21.7,16.1-36c0-26.7-21.7-48.4-48.4-48.4
			c-25.6,0-46.5,19.8-48.3,44.9c22.7,9.8,38.7,32.5,38.7,58.8c0,9.6-2.2,19-6.2,27.5c5.9,3.1,11.2,7,16,11.8
			c12.1,12.1,18.9,28.9,18.8,46.1l0,0.3l0,0.3l-0.4,8.1h58l0.5-64.2C375.5,297.2,370.4,284.7,361.2,275.4z"/>
		<path class="st0" d="M257.2,316.4c9.8-8.9,16.1-21.7,16.1-36c0-26.8-21.7-48.4-48.4-48.4c-26.8,0-48.4,21.7-48.4,48.4
			c0,14.3,6.2,27.1,16,35.9c-25.2,2-45.1,22.8-45.3,48.5l-0.5,9.6h73.6h80.9l0.5-8.9c0.1-13.1-5-25.6-14.3-34.9
			C279.4,322.4,268.6,317.5,257.2,316.4z"/>
		<path class="st0" d="M167.8,195.8v18c0,7.5,6.1,13.5,13.5,13.5c7.5,0,13.5-6.1,13.5-13.5v-18h18c7.5,0,13.5-6.1,13.5-13.5
			c0-7.5-6.1-13.5-13.5-13.5h-18V151c0-7.5-6-13.5-13.5-13.5c-7.5,0-13.5,6-13.5,13.5v17.7h-17.7c-7.5,0-13.5,6.1-13.5,13.5
			c0,7.5,6,13.5,13.5,13.5L167.8,195.8L167.8,195.8z"/>
	</g>
</g>
</svg>
