<?xml version="1.0" encoding="utf-8"?>
<!-- Generator: Adobe Illustrator 21.1.0, SVG Export Plug-In . SVG Version: 6.00 Build 0)  -->
<svg version="1.1" id="Capa_1" xmlns="http://www.w3.org/2000/svg" xmlns:xlink="http://www.w3.org/1999/xlink" x="0px" y="0px"
	 viewBox="0 0 512 512" style="enable-background:new 0 0 512 512;" xml:space="preserve">
<style type="text/css">
	.st0{fill:#909BAD;}
</style>
<g>
	<path class="st0" d="M378.7,39.7c-4.1-20.1-21.9-35.3-43.2-35.3c-4.9,0-8.8,3.9-8.8,8.8s3.9,8.8,8.8,8.8
		c14.6,0,26.5,11.9,26.5,26.5S350,75,335.4,75c-4.9,0-8.8,3.9-8.8,8.8s3.9,8.8,8.8,8.8c21.3,0,39.1-15.2,43.2-35.3h115.7v79.4H17.7
		V57.4h123.6h26.5c4.9,0,8.8-3.9,8.8-8.8s-3.9-8.8-8.8-8.8h-16c3.7-10.3,13.4-17.7,24.9-17.7c14.6,0,26.5,11.9,26.5,26.5
		S191.2,75,176.6,75c-4.9,0-8.8,3.9-8.8,8.8s3.9,8.8,8.8,8.8c24.3,0,44.1-19.8,44.1-44.1S200.9,4.4,176.6,4.4
		c-21.3,0-39.1,15.2-43.2,35.3H0v114.8v353.1h512V154.5V39.7H378.7z M494.3,489.9H17.7V154.5h476.7V489.9z"/>
	<path class="st0" d="M229.5,22.1c14.6,0,26.5,11.9,26.5,26.5S244.1,75,229.5,75c-4.9,0-8.8,3.9-8.8,8.8s3.9,8.8,8.8,8.8
		c24.3,0,44.1-19.8,44.1-44.1S253.9,4.4,229.5,4.4c-4.9,0-8.8,3.9-8.8,8.8S224.6,22.1,229.5,22.1z"/>
	<path class="st0" d="M282.5,22.1c14.6,0,26.5,11.9,26.5,26.5S297.1,75,282.5,75c-4.9,0-8.8,3.9-8.8,8.8s3.9,8.8,8.8,8.8
		c24.3,0,44.1-19.8,44.1-44.1S306.8,4.4,282.5,4.4c-4.9,0-8.8,3.9-8.8,8.8S277.6,22.1,282.5,22.1z"/>
	<circle class="st0" cx="194.2" cy="216.3" r="8.8"/>
	<circle class="st0" cx="256" cy="216.3" r="8.8"/>
	<circle class="st0" cx="317.8" cy="216.3" r="8.8"/>
	<circle class="st0" cx="379.6" cy="216.3" r="8.8"/>
	<circle class="st0" cx="441.4" cy="216.3" r="8.8"/>
	<circle class="st0" cx="70.6" cy="286.9" r="8.8"/>
	<circle class="st0" cx="132.4" cy="286.9" r="8.8"/>
	<circle class="st0" cx="194.2" cy="286.9" r="8.8"/>
	<circle class="st0" cx="256" cy="286.9" r="8.8"/>
	<circle class="st0" cx="317.8" cy="286.9" r="8.8"/>
	<circle class="st0" cx="379.6" cy="286.9" r="8.8"/>
	<circle class="st0" cx="441.4" cy="286.9" r="8.8"/>
	<circle class="st0" cx="70.6" cy="348.7" r="8.8"/>
	<circle class="st0" cx="132.4" cy="348.7" r="8.8"/>
	<circle class="st0" cx="194.2" cy="348.7" r="8.8"/>
	<circle class="st0" cx="256" cy="348.7" r="8.8"/>
	<circle class="st0" cx="317.8" cy="348.7" r="8.8"/>
	<circle class="st0" cx="379.6" cy="348.7" r="8.8"/>
	<circle class="st0" cx="441.4" cy="348.7" r="8.8"/>
	<circle class="st0" cx="70.6" cy="419.3" r="8.8"/>
	<circle class="st0" cx="132.4" cy="419.3" r="8.8"/>
	<circle class="st0" cx="194.2" cy="419.3" r="8.8"/>
	<circle class="st0" cx="256" cy="419.3" r="8.8"/>
	<circle class="st0" cx="317.8" cy="419.3" r="8.8"/>
</g>
</svg>
