<?xml version="1.0" encoding="utf-8"?>
<!-- Generator: Adobe Illustrator 21.1.0, SVG Export Plug-In . SVG Version: 6.00 Build 0)  -->
<svg version="1.1" id="Layer_1" xmlns="http://www.w3.org/2000/svg" xmlns:xlink="http://www.w3.org/1999/xlink" x="0px" y="0px"
	 viewBox="0 0 512 512" style="enable-background:new 0 0 512 512;" xml:space="preserve">
<style type="text/css">
	.st0{fill:#909BAD;}
</style>
<g transform="translate(1 1)">
	<g>
		<path class="st0" d="M485.4,424c-50.9-27-90-42.2-124.8-48l3.6-4.9c1.7-1.7,2.6-4.3,1.7-6.8l-8-32c21.2-29.9,33.6-67.3,33.6-102.8
			v-34.1h8.5h17.1c5.1,0,8.5-3.4,8.5-8.5c0-5.1-3.4-8.5-8.5-8.5h-8.5v-8.5c0-67.4-44.4-124.6-110.9-143.4v-1.7
			c0-13.7-11.1-25.6-25.6-25.6h-34.1c-13.7,0-25.6,11.1-25.6,25.6v1.7c-66.6,18.8-110.9,75.9-110.9,143.4v8.5h-8.5
			c-5.1,0-8.5,3.4-8.5,8.5c0,5.1,3.4,8.5,8.5,8.5h17.1h8.5v34.1c0,35.6,12.4,72.9,33.6,102.8l-8,32c0,1.7,0,5.1,1.7,6.8l3.6,4.9
			c-34.8,5.8-73.8,21-124.8,48C8.4,431.6-1,447.9-1,465.8v36.7c0,5.1,3.4,8.5,8.5,8.5h204.8h3.4h78.5h3.4h204.8
			c5.1,0,8.5-3.4,8.5-8.5v-36.7C511,448.7,500.8,432.5,485.4,424z M249.9,416.1l5.2-11.6l12.8,28.1l8.3,18.8h-41.6L249.9,416.1z
			 M228,468.3h53.9l4.9,25.6h-63.9L228,468.3z M344.6,348.9l3.4,15.4l-8.7,12c-0.6,0.5-1.1,1-1.5,1.7L302.3,427L291,442.5l-23-51.8
			c27.5-3.4,52-17.2,71.9-37c0.2-0.2,0.4-0.4,0.7-0.7c0.1-0.1,0.1-0.1,0.2-0.2C342,351.6,343.3,350.2,344.6,348.9z M333.5,61.4
			c0.9,0.6,1.9,1.3,2.8,1.9c10.9,8.1,20.9,17.6,28.8,27.8l-39.3,7.7L333.5,61.4z M184.2,98.8l-39.3-7.7
			c7.9-10.2,17.9-19.7,28.8-27.8c0.9-0.7,1.9-1.3,2.8-1.9L184.2,98.8z M118.5,169.7c0-22.7,5.7-44.1,16.1-62.9l59,11.7
			c0.9,0,0.9,0,1.7,0c2.6,0,4.3-0.9,6.8-1.7c2.6-1.7,3.4-5.1,2.6-7.7l-11.7-57c6.2-3,12.6-5.5,19.4-7.6v22.8c0,5.1,3.4,8.5,8.5,8.5
			c5.1,0,8.5-3.4,8.5-8.5V33.1v-8.5c0-4.3,3.4-8.5,8.5-8.5h34.1c4.3,0,8.5,3.4,8.5,8.5v8.5v34.1c0,5.1,3.4,8.5,8.5,8.5
			c5.1,0,8.5-3.4,8.5-8.5V44.5c7,2.2,13.7,4.8,20,7.9l-11.5,55.9c0,2.6,0.9,6,2.6,7.7c1.7,1.7,3.4,2.6,6,2.6c0.9,0,0.9,0,1.7,0
			l58.6-12.3c10.6,18.9,16.4,40.6,16.4,63.5v8.5H383H127h-8.5L118.5,169.7L118.5,169.7z M135.5,195.3h238.9v34.1
			c0,37.2-12.8,70.3-31.9,95.4L342,325c-0.9,0.9-1.7,1.7-2.6,2.6c-4.3,5.7-8.8,10.9-13.6,15.7c-20.1,18.7-44.1,30.1-67.2,31.2
			c-1.2-0.5-2.5-0.8-3.8-0.8c-1.3,0-2.5,0.3-3.6,0.8c-14.1-0.6-28.6-5.1-42.3-12.8c-13.9-8-27-19.5-38.6-34
			c-0.9-0.9-1.7-1.7-2.6-2.6l-0.5-0.2c-19.2-25.1-31.9-58.2-31.9-95.4L135.5,195.3L135.5,195.3z M242,390.7l-23,51.8L207.7,427
			l-35.5-49.1c-0.3-0.3-0.6-0.5-0.9-0.8l-9.4-12.8l3.4-15.4c1.2,1.2,2.3,2.5,3.5,3.7C188.9,373,213.9,387.3,242,390.7z M16.1,465.8
			c0-11.1,6-21.3,16.2-26.5c54.4-28.9,93.5-43.4,128.4-47.7l50.9,70l-6.5,32.3H16.1V465.8z M493.9,493.9H304.8l-6.5-32.3l51.5-70.8
			c34.8,5.2,74.6,19.7,127.9,47.6c10.2,6,16.2,16.2,16.2,27.3V493.9z"/>
	</g>
</g>
</svg>
