<?xml version="1.0" encoding="utf-8"?>
<!-- Generator: Adobe Illustrator 21.1.0, SVG Export Plug-In . SVG Version: 6.00 Build 0)  -->
<svg version="1.1" id="Layer_1" xmlns="http://www.w3.org/2000/svg" xmlns:xlink="http://www.w3.org/1999/xlink" x="0px" y="0px"
	 viewBox="0 0 512 512" style="enable-background:new 0 0 512 512;" xml:space="preserve">
<style type="text/css">
	.st0{fill:#9D9EA1;}
</style>
<g>
	<g>
		<path class="st0" d="M329.3,296.6H184.9c-2.8,0-5,2.2-5,5s2.2,5,5,5h144.4c2.8,0,5-2.2,5-5S332.1,296.6,329.3,296.6z"/>
	</g>
</g>
<g>
	<g>
		<path class="st0" d="M329.3,336H184.9c-2.8,0-5,2.2-5,5s2.2,5,5,5h144.4c2.8,0,5-2.2,5-5S332.1,336,329.3,336z"/>
	</g>
</g>
<g>
	<g>
		<path class="st0" d="M361.5,218.4H185.9l167.8-51.9c2.6-0.8,4.1-3.6,3.3-6.3L346.4,126c-0.4-1.3-1.3-2.3-2.5-3
			c-1.2-0.6-2.6-0.7-3.8-0.4l-199.5,61.7c-2.6,0.8-4.1,3.6-3.3,6.3l10.4,33.5v160.3c0,2.8,2.2,5,5,5h208.8c2.8,0,5-2.2,5-5V223.4
			C366.5,220.6,364.3,218.4,361.5,218.4z M333.3,228.4l-25.8,25.8h-32.4l25.8-25.8H333.3z M286.8,228.4L261,254.2h-32.4l25.8-25.8
			H286.8z M240.2,228.4l-25.8,25.8h-32.4l25.8-25.8H240.2z M193.7,228.4l-25.8,25.8h-10.2v-25.8H193.7z M338.3,133.8l7.6,24.6
			l-9.7,3l-32.2-17L338.3,133.8z M290.4,148.6l32.2,17l-30.9,9.6l-32.2-17L290.4,148.6z M246,162.4l32.2,17l-30.9,9.6l-32.2-17
			L246,162.4z M201.5,176.1l32.2,17l-30.9,9.6l-32.2-17L201.5,176.1z M148.4,192.5l8.6-2.7l32.2,17L156,217.1L148.4,192.5z
			 M356.5,379.5H157.7V264.2h198.8V379.5z M356.5,254.2h-34.8l25.8-25.8h9V254.2z"/>
	</g>
</g>
</svg>
