<?xml version="1.0" encoding="utf-8"?>
<!-- Generator: Adobe Illustrator 21.1.0, SVG Export Plug-In . SVG Version: 6.00 Build 0)  -->
<svg version="1.1" id="Layer_1" xmlns="http://www.w3.org/2000/svg" xmlns:xlink="http://www.w3.org/1999/xlink" x="0px" y="0px"
	 viewBox="0 0 512 512" style="enable-background:new 0 0 512 512;" xml:space="preserve">
<style type="text/css">
	.st0{fill:#909BAD;}
</style>
<g>
	<g>
		<path class="st0" d="M449.8,79.3L373,2.5c-1.5-1.6-3.7-2.5-6-2.5H102.4C78.9,0,59.7,19.1,59.7,42.7v426.7
			c0,23.5,19.1,42.7,42.7,42.7h307.2c23.5,0,42.7-19.1,42.7-42.7v-384C452.3,83,451.3,80.8,449.8,79.3z M375.5,29.1l47.7,47.7h-47.7
			V29.1z M435.2,469.3c0,14.1-11.5,25.6-25.6,25.6H102.4c-14.1,0-25.6-11.5-25.6-25.6V42.7c0-14.1,11.5-25.6,25.6-25.6h256v68.3
			c0,4.7,3.8,8.5,8.5,8.5h68.3V469.3z"/>
	</g>
</g>
<g>
	<g>
		<path class="st0" d="M136.5,119.5c-18.8,0-34.1,15.3-34.1,34.1s15.3,34.1,34.1,34.1s34.1-15.3,34.1-34.1S155.4,119.5,136.5,119.5z
			 M136.5,170.7c-9.4,0-17.1-7.7-17.1-17.1s7.7-17.1,17.1-17.1c9.4,0,17.1,7.7,17.1,17.1S145.9,170.7,136.5,170.7z"/>
	</g>
</g>
<g>
	<g>
		<path class="st0" d="M136.5,213.3c-18.8,0-34.1,15.3-34.1,34.1s15.3,34.1,34.1,34.1s34.1-15.3,34.1-34.1S155.4,213.3,136.5,213.3z
			 M136.5,264.5c-9.4,0-17.1-7.7-17.1-17.1c0-9.4,7.7-17.1,17.1-17.1c9.4,0,17.1,7.7,17.1,17.1C153.6,256.9,145.9,264.5,136.5,264.5
			z"/>
	</g>
</g>
<g>
	<g>
		<path class="st0" d="M136.5,307.2c-18.8,0-34.1,15.3-34.1,34.1c0,18.8,15.3,34.1,34.1,34.1s34.1-15.3,34.1-34.1
			C170.7,322.5,155.4,307.2,136.5,307.2z M136.5,358.4c-9.4,0-17.1-7.7-17.1-17.1c0-9.4,7.7-17.1,17.1-17.1
			c9.4,0,17.1,7.7,17.1,17.1C153.6,350.7,145.9,358.4,136.5,358.4z"/>
	</g>
</g>
<g>
	<g>
		<path class="st0" d="M136.5,401.1c-18.8,0-34.1,15.3-34.1,34.1c0,18.8,15.3,34.1,34.1,34.1s34.1-15.3,34.1-34.1
			C170.7,416.4,155.4,401.1,136.5,401.1z M136.5,452.3c-9.4,0-17.1-7.7-17.1-17.1c0-9.4,7.7-17.1,17.1-17.1
			c9.4,0,17.1,7.7,17.1,17.1C153.6,444.6,145.9,452.3,136.5,452.3z"/>
	</g>
</g>
<g>
	<g>
		<rect x="187.7" y="162.1" class="st0" width="221.9" height="17.1"/>
	</g>
</g>
<g>
	<g>
		<rect x="196.3" y="42.7" class="st0" width="119.5" height="17.1"/>
	</g>
</g>
<g>
	<g>
		<rect x="170.7" y="76.8" class="st0" width="170.7" height="17.1"/>
	</g>
</g>
<g>
	<g>
		<rect x="187.7" y="256" class="st0" width="221.9" height="17.1"/>
	</g>
</g>
<g>
	<g>
		<rect x="187.7" y="349.9" class="st0" width="221.9" height="17.1"/>
	</g>
</g>
<g>
	<g>
		<rect x="187.7" y="443.7" class="st0" width="221.9" height="17.1"/>
	</g>
</g>
<g>
	<g>
		<rect x="256" y="128" class="st0" width="17.1" height="17.1"/>
	</g>
</g>
<g>
	<g>
		<rect x="221.9" y="128" class="st0" width="17.1" height="17.1"/>
	</g>
</g>
<g>
	<g>
		<rect x="187.7" y="128" class="st0" width="17.1" height="17.1"/>
	</g>
</g>
</svg>
