<?xml version="1.0" encoding="utf-8"?>
<!-- Generator: Adobe Illustrator 21.1.0, SVG Export Plug-In . SVG Version: 6.00 Build 0)  -->
<svg version="1.1" id="Capa_1" xmlns="http://www.w3.org/2000/svg" xmlns:xlink="http://www.w3.org/1999/xlink" x="0px" y="0px"
	 viewBox="0 0 512 512" style="enable-background:new 0 0 512 512;" xml:space="preserve">
<style type="text/css">
	.st0{fill:#909BAD;}
</style>
<g>
	<g id="content-paste">
		<path class="st0" d="M418.9,46.5h-97.7C311.9,18.6,286.3,0,256,0s-55.9,18.6-65.2,46.5H93.1c-25.6,0-46.5,20.9-46.5,46.5v372.4
			c0,25.6,20.9,46.5,46.5,46.5h325.8c25.6,0,46.5-20.9,46.5-46.5V93.1C465.5,67.5,444.5,46.5,418.9,46.5z M256,46.5
			c14,0,23.3,9.3,23.3,23.3S270,93.1,256,93.1c-14,0-23.3-9.3-23.3-23.3S242,46.5,256,46.5z M418.9,465.5H93.1V93.1h46.5v69.8h232.7
			V93.1h46.5V465.5z"/>
	</g>
</g>
</svg>
